<?xml version="1.0" encoding="utf-8"?>
<svg version="1.1" xmlns:xlink="http://www.w3.org/1999/xlink" width="140px" height="40px" xmlns="http://www.w3.org/2000/svg">
  <defs>
    <mask fill="white" id="clip3">
      <path d="M 0 35  L 0 5  C 0 2.2  2.20000000000005 0  5 0  L 61.6363636363637 0  L 95.7272727272727 0  L 135 0  C 137.8 0  140 2.2  140 5  L 140 35  C 140 37.8  137.8 40  135 40  L 5 40  C 2.20000000000005 40  0 37.8  0 35  Z " fill-rule="evenodd" />
    </mask>
  </defs>
  <g transform="matrix(1 0 0 1 -977 -25 )">
    <path d="M 0 35  L 0 5  C 0 2.2  2.20000000000005 0  5 0  L 61.6363636363637 0  L 95.7272727272727 0  L 135 0  C 137.8 0  140 2.2  140 5  L 140 35  C 140 37.8  137.8 40  135 40  L 5 40  C 2.20000000000005 40  0 37.8  0 35  Z " fill-rule="nonzero" fill="#ffffff" stroke="none" fill-opacity="0.635294117647059" transform="matrix(1 0 0 1 977 25 )" />
    <path d="M 0 35  L 0 5  C 0 2.2  2.20000000000005 0  5 0  L 61.6363636363637 0  L 95.7272727272727 0  L 135 0  C 137.8 0  140 2.2  140 5  L 140 35  C 140 37.8  137.8 40  135 40  L 5 40  C 2.20000000000005 40  0 37.8  0 35  Z " stroke-width="2" stroke="#797979" fill="none" transform="matrix(1 0 0 1 977 25 )" mask="url(#clip3)" />
  </g>
</svg>